# xmcd CD database file
#
# Track frame offsets:
#	150
#	29542
#	55161
#	79140
#
# Disc length: 1247 seconds
#
# Revision: 0
# Processed by: cddbd v1.5.1PL0 Copyright (c) Steve Scherf et al.
# Submitted via: CDex 1.51
#
DISCID=2b04dd04
DTITLE=Hard Gear - Infinitival Ability
DYEAR=1900
DGENRE=Heavy Metal
TTITLE0=Infinity
TTITLE1=Stroller
TTITLE2=Prevision
TTITLE3=Into Despair
EXTD=
EXTT0=
EXTT1=
EXTT2=
EXTT3=
PLAYORDER=
